# xmcd CD database file
#
# Track frame offsets:
#	150
#	22937
#	52965
#	87035
#	105442
#	134935
#	154790
#	181420
#
# Disc length: 2705 seconds
#
# Revision: 1
# Processed by: cddbd v1.5.1PL0 Copyright (c) Steve Scherf et al.
# Submitted via: CDex 1.51
#
DISCID=5d0a8f08
DTITLE=Big mama thornton - the riing sun collection2
DYEAR=1977
DGENRE=Blues
TTITLE0=spoonful
TTITLE1=rock me baby
TTITLE2=ball and chain
TTITLE3=watermelon man
TTITLE4=summertime
TTITLE5=medley:hound dog/walking the dog
TTITLE6=sweet little angel
TTITLE7=sassy mama
EXTD=YEAR: 1977
EXTT0=
EXTT1=
EXTT2=
EXTT3=
EXTT4=
EXTT5=
EXTT6=
EXTT7=
PLAYORDER=
